<svg width="64" height="64" viewBox="0 0 32 32" xmlns="http://www.w3.org/2000/svg"><g id="SVGRepo_iconCarrier"><path d="M0 22.016q0 2.496 1.76 4.224T6.016 28H8q0-1.632 1.184-2.816T12 24h8q1.664 0 2.816 1.184T24 28h2.016q2.464 0 4.224-1.76T32 22.016v-12q0-2.496-1.76-4.256T26.016 4h-20Q3.52 4 1.76 5.76T0 10.016v12zm4 4V24h2.016v2.016H4zM4 20v-9.984q0-.832.576-1.408T6.016 8h20q.8 0 1.408.608T28 10.016V20q0 .832-.576 1.44t-1.408.576h-20q-.832 0-1.44-.576T4 20zm2.016-2.976q0 1.248.864 2.112T8.992 20t2.144-.864.864-2.112-.864-2.144-2.144-.864-2.112.864-.864 2.144zm0-5.024h20v-1.984h-20V12zm4.16 16h11.648q-.32-.864-1.088-1.44t-1.728-.544h-6.016q-.928 0-1.728.544T10.176 28zm3.84-9.984h4V16h-4v2.016zM20 17.024q0 1.248.864 2.112t2.144.864 2.112-.864.896-2.112-.896-2.144-2.112-.864-2.144.864T20 17.024zm6.016 8.992V24H28v2.016h-1.984z"/></g></svg>