<svg width="64" height="64" viewBox="0 0 20 20" xmlns="http://www.w3.org/2000/svg"><g id="SVGRepo_iconCarrier"><g id="Page-1" stroke="none" stroke-width="1" fill="none" fill-rule="evenodd"><g id="Dribbble-Light-Preview" transform="translate(-340 -7799)" fill="#000"><g id="icons" transform="translate(56 160)"><path d="M292.598 7649.012c1.723-1.724 1.242-1.243 6.306-6.315a7.95 7.95 0 0 0-10.557.644c-3.114 3.118-3.122 8.184-.009 11.303 2.875 2.88 7.41 3.095 10.54.658l-6.28-6.29Zm2.824 0 6.354 6.365c-5.266 5.273-11.39 4.148-14.851.68-3.899-3.904-3.9-10.238-.001-14.144 3.662-3.667 9.5-3.851 13.38-.667.526.431.95.88 1.472 1.403l-6.354 6.363Zm8.578-.096c0 1.104-.894 2-1.997 2a1.998 1.998 0 0 1-1.997-2 1.998 1.998 0 1 1 3.994 0Z" id="pac-man-[#91]"/></g></g></g></g></svg>