<svg width="64" height="64" viewBox="0 0 32 32" version="1.1" fill="#000" id="svg1" xmlns:xlink="http://www.w3.org/1999/xlink" xmlns="http://www.w3.org/2000/svg"><defs id="defs2"><linearGradient id="linearGradient9"><stop style="stop-color:#ff8022;stop-opacity:1" offset="0" id="stop9"/><stop style="stop-color:#fac03a;stop-opacity:1" offset="1" id="stop10"/></linearGradient><linearGradient xlink:href="#linearGradient9" id="linearGradient10" x1="32.35" y1="39.421" x2="32.085" y2=".177" gradientUnits="userSpaceOnUse"/></defs><g id="SVGRepo_iconCarrier"><g id="Page-1" stroke="none" stroke-width="1" fill="none" fill-rule="evenodd"><g id="Icon-Set-Filled" transform="translate(-362 -829)" fill="#000"><path d="M390 855h-24a1 1 0 1 0 0 2h24a1 1 0 1 0 0-2Zm3-4h-30a1 1 0 1 0 0 2h30a1 1 0 1 0 0-2Zm.476-2c.33-1.28.524-2.616.524-4 0-8.836-7.163-16-16-16s-16 7.164-16 16c0 1.384.194 2.72.524 4h30.952ZM383 859h-10a1 1 0 1 0 0 2h10a1 1 0 1 0 0-2Z" id="sunset-2"/></g></g></g><path style="fill:#000;stroke-width:.0823681px" d="M21.321 63.825c-.423-.15-.906-.61-1.108-1.054-.43-.947.085-2.198 1.06-2.574.37-.143.916-.15 10.727-.15 11.7 0 10.807-.052 11.433.66.72.817.676 1.94-.104 2.697-.607.59.089.556-11.364.548-8.843-.005-10.35-.023-10.644-.127z" id="path2" transform="scale(.5)"/><path style="fill:#f93c83;stroke-width:.082px;stroke-dasharray:none;fill-opacity:1" d="M21.321 63.825c-.423-.15-.906-.61-1.108-1.054-.43-.947.085-2.198 1.06-2.574.37-.143.916-.15 10.727-.15 11.7 0 10.807-.052 11.433.66.72.817.676 1.94-.104 2.697-.607.59.089.556-11.364.548-8.843-.005-10.35-.023-10.644-.127z" id="path3" transform="scale(.5)"/><path style="fill:#f93c83;fill-opacity:1;stroke-width:.00724784px;stroke-dasharray:none" d="M24.66 63.87c-3.61-.06-3.567-.052-4.068-.647-.643-.762-.638-1.684.014-2.445.612-.715-.112-.663 9.667-.7 9.032-.033 12.236.032 12.651.255.299.16.662.598.83.998.4.96-.206 2.197-1.195 2.44-.466.115-12.73.182-17.899.098z" id="path4" transform="scale(.5)"/><path style="fill:#f93c83;fill-opacity:1;stroke-width:.00724784px;stroke-dasharray:none" d="M7.637 55.912c-.464-.091-.878-.362-1.2-.784-.701-.919-.382-2.249.682-2.846l.394-.221H56.48l.354.19c1.47.794 1.476 2.72.01 3.504l-.364.195-24.262.012c-13.345.007-24.406-.016-24.58-.05z" id="path5" transform="scale(.5)"/><path style="fill:#fd6755;fill-opacity:1;stroke-width:.00724784px;stroke-dasharray:none" d="M1.143 47.708C.485 47.374.157 46.89.105 46.18c-.066-.916.375-1.657 1.19-1.997.43-.18 60.968-.182 61.397-.002.426.178.844.565 1.053.974.51 1-.079 2.371-1.16 2.695-.249.075-8.192.1-30.65.1H1.624Z" id="path6" transform="scale(.5)"/><path style="fill:url(#linearGradient10);fill-opacity:1;stroke-width:.00724784px;stroke-dasharray:none" d="M1.018 39.664c-.196-.686-.613-2.94-.765-4.132-.194-1.527-.222-5.338-.05-6.806.75-6.404 2.988-11.819 6.926-16.762 1.265-1.587 3.27-3.588 4.915-4.902C18.997 1.504 27.878-.893 36.728.399c10.266 1.5 19.383 8.177 23.955 17.544 1.62 3.319 2.565 6.514 3.06 10.341.22 1.706.219 5.685-.003 7.337-.148 1.104-.73 4.16-.819 4.305-.024.038-13.94.07-30.926.07H1.113Z" id="path7" transform="scale(.5)"/><path style="fill:#fd6755;fill-opacity:1;stroke-width:.00724784px;stroke-dasharray:none" d="M20.005 56.016c6.628-.012 17.446-.012 24.042 0 6.595.013 1.172.023-12.05.023-13.223 0-18.62-.01-11.992-.023z" id="path8" transform="scale(.5)"/><path style="fill:#fd6755;fill-opacity:1;stroke-width:.00724784px;stroke-dasharray:none" d="M7.292 55.738c-.647-.3-1.194-1.063-1.193-1.664.002-.68.4-1.331 1.077-1.759l.333-.21H56.484l.33.21c.963.617 1.315 1.548.906 2.397-.22.459-.32.575-.79.913l-.388.28-24.448-.001c-23.628-.002-24.46-.008-24.802-.166Z" id="path9" transform="scale(.5)"/></svg>