<svg width="64" height="64" viewBox="0 -3 20 20" xmlns="http://www.w3.org/2000/svg"><g id="SVGRepo_iconCarrier"><g id="Page-1" stroke="none" stroke-width="1" fill="none" fill-rule="evenodd"><g id="Dribbble-Light-Preview" transform="translate(-300 -7442)" fill="#000"><g id="icons" transform="translate(56 160)"><path d="M251.988 7291.586v-5.612c1.993.938 3.536 1.843 5.36 2.82-1.505.834-3.367 1.77-5.36 2.792m11.103-8.403c-.344-.453-.93-.805-1.553-.922-1.833-.348-13.267-.349-15.099 0-.5.094-.945.32-1.328.673-1.611 1.495-1.106 9.518-.718 10.817.164.562.375.968.64 1.235.343.352.812.594 1.351.703 1.51.312 9.284.486 15.122.047a2.62 2.62 0 0 0 1.39-.712c1.49-1.49 1.388-9.962.195-11.841" id="youtube-[#168]"/></g></g></g></g></svg>