<?xml version="1.0" encoding="UTF-8" standalone="no"?>
<!-- Uploaded to: SVG Repo, www.svgrepo.com, Transformed by: SVG Repo Mixer Tools -->

<svg
   width="64px"
   height="64px"
   viewBox="0 0 32 32"
   version="1.1"
   fill="#000000"
   id="svg1"
   sodipodi:docname="sunset-2-svgrepo-com.svg"
   inkscape:version="1.3 (0e150ed6c4, 2023-07-21)"
   xmlns:inkscape="http://www.inkscape.org/namespaces/inkscape"
   xmlns:sodipodi="http://sodipodi.sourceforge.net/DTD/sodipodi-0.dtd"
   xmlns:xlink="http://www.w3.org/1999/xlink"
   xmlns="http://www.w3.org/2000/svg"
   xmlns:svg="http://www.w3.org/2000/svg"
   xmlns:sketch="http://www.bohemiancoding.com/sketch/ns">
  <defs
     id="defs2">
    <linearGradient
       id="linearGradient9"
       inkscape:collect="always">
      <stop
         style="stop-color:#ff8022;stop-opacity:1;"
         offset="0"
         id="stop9" />
      <stop
         style="stop-color:#fac03a;stop-opacity:1;"
         offset="1"
         id="stop10" />
    </linearGradient>
    <linearGradient
       inkscape:collect="always"
       xlink:href="#linearGradient9"
       id="linearGradient10"
       x1="32.350132"
       y1="39.421204"
       x2="32.084972"
       y2="0.17677745"
       gradientUnits="userSpaceOnUse" />
  </defs>
  <sodipodi:namedview
     id="namedview1"
     pagecolor="#ffffff"
     bordercolor="#000000"
     borderopacity="0.25"
     inkscape:showpageshadow="2"
     inkscape:pageopacity="0.0"
     inkscape:pagecheckerboard="0"
     inkscape:deskcolor="#d1d1d1"
     showguides="false"
     inkscape:zoom="11.313708"
     inkscape:cx="36.902135"
     inkscape:cy="33.631766"
     inkscape:window-width="1920"
     inkscape:window-height="991"
     inkscape:window-x="-9"
     inkscape:window-y="-9"
     inkscape:window-maximized="1"
     inkscape:current-layer="svg1" />
  <g
     id="SVGRepo_bgCarrier"
     stroke-width="0" />
  <g
     id="SVGRepo_tracerCarrier"
     stroke-linecap="round"
     stroke-linejoin="round" />
  <g
     id="SVGRepo_iconCarrier">
    <title
       id="title1">sunset 2</title>
    <desc
       id="desc1">Created with Sketch Beta.</desc>
    <defs
       id="defs1" />
    <g
       id="Page-1"
       stroke="none"
       stroke-width="1"
       fill="none"
       fill-rule="evenodd"
       sketch:type="MSPage">
      <g
         id="Icon-Set-Filled"
         sketch:type="MSLayerGroup"
         transform="translate(-362.000000, -829.000000)"
         fill="#000000">
        <path
           d="M390,855 L366,855 C365.447,855 365,855.447 365,856 C365,856.553 365.447,857 366,857 L390,857 C390.553,857 391,856.553 391,856 C391,855.447 390.553,855 390,855 L390,855 Z M393,851 L363,851 C362.447,851 362,851.447 362,852 C362,852.553 362.447,853 363,853 L393,853 C393.553,853 394,852.553 394,852 C394,851.447 393.553,851 393,851 L393,851 Z M393.476,849 C393.806,847.72 394,846.384 394,845 C394,836.164 386.837,829 378,829 C369.163,829 362,836.164 362,845 C362,846.384 362.194,847.72 362.524,849 L393.476,849 L393.476,849 Z M383,859 L373,859 C372.447,859 372,859.447 372,860 C372,860.553 372.447,861 373,861 L383,861 C383.553,861 384,860.553 384,860 C384,859.447 383.553,859 383,859 L383,859 Z"
           id="sunset-2"
           sketch:type="MSShapeGroup" />
      </g>
    </g>
  </g>
  <path
     style="fill:#000000;stroke-width:0.0823681"
     d="m 21.321219,63.824723 c -0.42338,-0.150082 -0.906587,-0.60943 -1.108312,-1.053588 -0.43021,-0.947236 0.08491,-2.198125 1.060162,-2.574424 C 21.642967,60.053987 22.189002,60.046332 32,60.046332 c 11.69931,0 10.806544,-0.05156 11.433154,0.660306 0.719491,0.817384 0.676036,1.939547 -0.10446,2.697555 -0.606351,0.58888 0.08883,0.555349 -11.363959,0.54812 -8.842601,-0.0056 -10.350317,-0.02365 -10.643516,-0.12759 z"
     id="path2"
     transform="scale(0.5)" />
  <path
     style="fill:#f93c83;stroke-width:0.082;stroke-dasharray:none;fill-opacity:1"
     d="m 21.321219,63.824723 c -0.42338,-0.150082 -0.906587,-0.60943 -1.108312,-1.053588 -0.43021,-0.947236 0.08491,-2.198125 1.060162,-2.574424 C 21.642967,60.053987 22.189002,60.046332 32,60.046332 c 11.69931,0 10.806544,-0.05156 11.433154,0.660306 0.719491,0.817384 0.676036,1.939547 -0.10446,2.697555 -0.606351,0.58888 0.08883,0.555349 -11.363959,0.54812 -8.842601,-0.0056 -10.350317,-0.02365 -10.643516,-0.12759 z"
     id="path3"
     transform="scale(0.5)" />
  <path
     style="fill:#f93c83;fill-opacity:1;stroke-width:0.00724784;stroke-dasharray:none"
     d="m 24.660349,63.869438 c -3.610125,-0.05856 -3.567243,-0.05175 -4.06873,-0.646498 -0.642464,-0.761945 -0.637131,-1.684302 0.01414,-2.445165 0.611907,-0.714876 -0.111738,-0.662556 9.667251,-0.698935 9.032382,-0.0336 12.236106,0.03067 12.650942,0.2538 0.298846,0.16074 0.662382,0.598188 0.82949,0.998133 0.400882,0.959446 -0.204999,2.19762 -1.194452,2.440971 -0.465932,0.114594 -12.730249,0.181535 -17.89864,0.09769 z"
     id="path4"
     transform="scale(0.5)" />
  <path
     style="fill:#f93c83;fill-opacity:1;stroke-width:0.00724784;stroke-dasharray:none"
     d="M 7.6372029,55.912003 C 7.1734558,55.820819 6.7585633,55.549909 6.437006,55.12832 5.7358773,54.209078 6.054612,52.879453 7.1193894,52.281708 L 7.5130096,52.060737 H 31.996582 56.480154 l 0.353554,0.190779 c 1.47027,0.793364 1.476306,2.719467 0.01098,3.50331 l -0.364532,0.194998 -24.262601,0.01233 c -13.344431,0.0068 -24.4055885,-0.01579 -24.5803501,-0.05015 z"
     id="path5"
     transform="scale(0.5)" />
  <path
     style="fill:#fd6755;fill-opacity:1;stroke-width:0.00724784;stroke-dasharray:none"
     d="M 1.1433478,47.707611 C 0.48527536,47.37391 0.15667983,46.890438 0.10531463,46.180321 0.0390215,45.263828 0.47981927,44.523496 1.294461,44.183117 c 0.4304834,-0.179868 60.968668,-0.182172 61.397814,-0.0023 0.425485,0.1783 0.843969,0.565601 1.052227,0.97382 0.510785,1.001221 -0.07831,2.371502 -1.158682,2.69519 -0.249469,0.07474 -8.192741,0.100889 -30.649934,0.100889 H 1.622689 Z"
     id="path6"
     transform="scale(0.5)" />
  <path
     style="fill:url(#linearGradient10);fill-opacity:1;stroke-width:0.00724784;stroke-dasharray:none"
     d="M 1.0184387,39.664271 C 0.82226575,38.977833 0.40507545,36.724224 0.25349031,35.532116 0.05933945,34.00526 0.03117673,30.193685 0.20320329,28.726213 0.95392797,22.322159 3.1913173,16.907459 7.1292975,11.964391 8.3939769,10.376928 10.399837,8.3759977 12.044015,7.0617496 18.997404,1.5036712 27.878328,-0.89348557 36.728143,0.39896098 46.993941,1.8982011 56.111406,8.5756685 60.682682,17.942835 c 1.619586,3.318753 2.564982,6.514021 3.059756,10.341436 0.22054,1.706026 0.219256,5.685077 -0.0024,7.336233 -0.148221,1.104291 -0.729625,4.160723 -0.818961,4.305273 -0.02378,0.03847 -13.940292,0.06995 -30.925589,0.06995 H 1.1131636 Z"
     id="path7"
     transform="scale(0.5)" />
  <path
     style="fill:#fd6755;fill-opacity:1;stroke-width:0.00724784;stroke-dasharray:none"
     d="m 20.00499,56.016117 c 6.627521,-0.0125 17.446255,-0.0125 24.04163,2e-6 6.595376,0.0125 1.172859,0.02273 -12.050038,0.02273 -13.222897,0 -18.619113,-0.01023 -11.991592,-0.02273 z"
     id="path8"
     transform="scale(0.5)" />
  <path
     style="fill:#fd6755;fill-opacity:1;stroke-width:0.00724784;stroke-dasharray:none"
     d="M 7.2920387,55.737705 C 6.6447244,55.437363 6.0980849,54.675072 6.0992889,54.074411 c 0.00137,-0.681024 0.3995389,-1.331473 1.0767688,-1.758989 l 0.333439,-0.210491 H 31.996582 56.483667 l 0.3297,0.210952 c 0.963329,0.616367 1.315584,1.54697 0.907131,2.396504 -0.220388,0.458385 -0.320735,0.574372 -0.789567,0.912639 L 56.542019,55.90563 32.093806,55.90373 C 8.4663795,55.901813 7.6337224,55.89624 7.2920387,55.737705 Z"
     id="path9"
     transform="scale(0.5)" />
</svg>
